<svg xmlns="http://www.w3.org/2000/svg" viewBox="0 0 301.27 58.24"><defs><style>.cls-1{fill:#fff;}</style></defs><g id="Layer_2" data-name="Layer 2"><g id="OBJECTS"><polygon class="cls-1" points="0 3.49 11.9 3.49 11.9 58.24 15.73 58.24 15.73 3.49 27.54 3.49 27.54 0 0 0 0 3.49"/><polygon class="cls-1" points="54.5 27.37 36.36 27.37 36.36 0 32.53 0 32.53 58.24 36.36 58.24 36.36 30.87 54.5 30.87 54.5 58.24 58.41 58.24 58.41 0 54.5 0 54.5 27.37"/><polygon class="cls-1" points="65.06 58.24 88.03 58.24 88.03 54.75 68.89 54.75 68.89 30.45 84.78 30.45 84.78 26.96 68.89 26.96 68.89 3.49 88.03 3.49 88.03 0 65.06 0 65.06 58.24"/><polygon class="cls-1" points="103.42 0 94.27 0 94.27 58.24 118.48 58.24 118.48 49.92 103.42 49.92 103.42 0"/><rect class="cls-1" x="122.47" width="9.15" height="58.24"/><path class="cls-1" d="M159.75,27.21a9.27,9.27,0,0,0,4.45-4.33,16.53,16.53,0,0,0,1.45-7.4V13.4q0-6.83-3.24-10.11T152.09,0H138.28V58.24h14.39q6.83,0,10.36-3.53t3.54-10.28V39.69Q166.57,29.87,159.75,27.21ZM147.43,8.32h4.41a4.26,4.26,0,0,1,3.54,1.41,7.41,7.41,0,0,1,1.12,4.58v3.25c0,2.21-.46,3.8-1.37,4.74A5.52,5.52,0,0,1,151,23.71h-3.58Zm10,35.86c0,2.11-.39,3.59-1.17,4.45a4.59,4.59,0,0,1-3.58,1.29h-5.24V32h4.08c2.11,0,3.62.52,4.53,1.54s1.38,2.87,1.38,5.54Z"/><path class="cls-1" d="M199.52,51.17v-9a19.19,19.19,0,0,0-1.42-7.94,8.38,8.38,0,0,0-4.66-4.45q6-2.84,6-11.82V13.4q0-6.83-3.24-10.11T185.87,0H172.06V58.24h9.15V34.53h3.16q3.16,0,4.58,1.71t1.41,5.69v9.16a40,40,0,0,0,.17,4.49,12.8,12.8,0,0,0,.67,2.66h9.32a10,10,0,0,1-.84-3A39.89,39.89,0,0,1,199.52,51.17Zm-9.24-31.12q0,3.33-1.37,4.74a5.48,5.48,0,0,1-4.12,1.42h-3.58V8.32h4.41a4.26,4.26,0,0,1,3.54,1.41,7.41,7.41,0,0,1,1.12,4.58Z"/><path class="cls-1" d="M212.41,0l-9.32,58.24h8.41l1.58-10.56h11.23l1.58,10.56h9.24L225.81,0Zm1.83,39.77,4.41-29.45,4.41,29.45Z"/><path class="cls-1" d="M266.83,51.17v-9a19.19,19.19,0,0,0-1.42-7.94,8.38,8.38,0,0,0-4.66-4.45q6-2.84,6-11.82V13.4q0-6.83-3.24-10.11T253.18,0H239.37V58.24h9.15V34.53h3.16q3.16,0,4.58,1.71c.94,1.13,1.42,3,1.42,5.69v9.16a40.72,40.72,0,0,0,.16,4.49,12.8,12.8,0,0,0,.67,2.66h9.32a10,10,0,0,1-.84-3A39.89,39.89,0,0,1,266.83,51.17Zm-9.24-31.12q0,3.33-1.37,4.74a5.48,5.48,0,0,1-4.12,1.42h-3.58V8.32h4.41a4.26,4.26,0,0,1,3.54,1.41,7.41,7.41,0,0,1,1.12,4.58Z"/><polygon class="cls-1" points="292.54 0 285.55 26.54 278.56 0 268.99 0 280.56 38.94 280.56 58.24 289.71 58.24 289.71 38.94 301.27 0 292.54 0"/></g></g></svg>